<?xml version="1.0" encoding="utf-8"?>
<!-- Generator: Adobe Illustrator 19.0.0, SVG Export Plug-In . SVG Version: 6.00 Build 0)  -->
<svg version="1.1" id="Layer_1" xmlns="http://www.w3.org/2000/svg" xmlns:xlink="http://www.w3.org/1999/xlink" x="0px" y="0px"
	 viewBox="0 0 612 792" style="enable-background:new 0 0 612 792;" xml:space="preserve">
<style type="text/css">
	.st0{fill:#93C83E;}
	.st1{fill:#95C93E;}
	.st2{fill:#92C83E;}
	.st3{fill:#96C93E;}
	.st4{fill:#CDE298;}
	.st5{fill:#E1EDC1;}
	.st6{fill:#CCE196;}
	.st7{fill:#DBEAB3;}
	.st8{fill:#DAE9AC;}
	.st9{fill:#D4E6A7;}
	.st10{fill:#BBD86A;}
	.st11{fill:#BEDA74;}
	.st12{fill:#E2EEC7;}
	.st13{fill:#94C93E;}
	.st14{fill:#132631;}
	.st15{fill:#91C83F;}
	.st16{fill:#142632;}
	.st17{fill:#90C73F;}
	.st18{fill:#152531;}
	.st19{fill:#8DC73F;}
	.st20{fill:#98CA3D;}
	.st21{fill:#99CA3D;}
	.st22{fill:#9BCB3C;}
	.st23{fill:#152631;}
	.st24{fill:#152630;}
	.st25{fill:#96C93D;}
	.st26{fill:#97C93D;}
	.st27{fill:#182630;}
	.st28{fill:#9BCB3D;}
	.st29{fill:#172026;}
	.st30{fill:#17252D;}
	.st31{fill:#9ACA3D;}
	.st32{fill:#14242F;}
	.st33{fill:#98CA3E;}
	.st34{fill:#12212C;}
	.st35{fill:#8FC73F;}
	.st36{fill:#151E26;}
	.st37{fill:#92C840;}
	.st38{fill:#9CCB3C;}
	.st39{fill:#83C442;}
	.st40{fill:#84C441;}
	.st41{fill:#181E26;}
	.st42{fill:#95C93F;}
	.st43{fill:#90C741;}
	.st44{fill:#172027;}
	.st45{fill:#19212A;}
	.st46{fill:#172025;}
	.st47{fill:#20252B;}
	.st48{fill:#191D22;}
	.st49{fill:#171E24;}
	.st50{fill:#141F23;}
	.st51{fill:#202327;}
	.st52{fill:#192836;}
	.st53{fill:#17232D;}
	.st54{fill:#171C21;}
	.st55{fill:#131E22;}
	.st56{fill:#172836;}
	.st57{fill:#152737;}
	.st58{fill:#91C841;}
	.st59{fill:#92C83F;}
	.st60{fill:#1B2226;}
	.st61{fill:#1C2024;}
	.st62{fill:#232527;}
	.st63{fill:#181F25;}
	.st64{fill:#151F27;}
	.st65{fill:#26272A;}
	.st66{fill:#162732;}
	.st67{fill:#121D25;}
	.st68{fill:#89C540;}
	.st69{fill:#20272C;}
	.st70{fill:#142734;}
	.st71{fill:#152732;}
	.st72{fill:#13252F;}
	.st73{fill:#132634;}
	.st74{fill:#13222F;}
	.st75{fill:#172833;}
	.st76{fill:#15252D;}
	.st77{fill:#142634;}
	.st78{fill:#132530;}
	.st79{fill:#16262F;}
	.st80{fill:#152A36;}
	.st81{fill:#14262F;}
	.st82{fill:#14262C;}
	.st83{fill:#12242E;}
	.st84{fill:#152530;}
	.st85{fill:#182A38;}
	.st86{fill:#8BC640;}
	.st87{fill:#152533;}
	.st88{fill:#15252F;}
	.st89{fill:#162634;}
	.st90{fill:#142534;}
	.st91{fill:#152632;}
	.st92{fill:#182834;}
	.st93{fill:#142533;}
	.st94{fill:#87C541;}
	.st95{fill:#85C441;}
	.st96{fill:#12222B;}
	.st97{fill:#14262E;}
	.st98{fill:#1B2731;}
	.st99{fill:#1A2C36;}
	.st100{fill:#162831;}
	.st101{fill:#152736;}
	.st102{fill:#16242E;}
</style>
<path id="XMLID_447_" class="st0" d="M220,412c0,0.6,0.1,1.2,0.1,1.8c-1.9,1.5-4.6,2.2-6.2,1.4c-1.8-0.8-2.7-2.4-2.9-4.3
	c-0.1-0.8-0.1-1.7,0.2-2.5c3.1-9,1.2-18.4,2.3-27.6c0.1-1-0.1-2-0.3-2.9c-0.4-1.2-0.4-2.9-1.9-3.3c-1.7-0.4-1.9,1.5-2.6,2.5
	c-1.5,2.2-3.6,3.9-5.5,5.7c-1.9,1.8-3.8,2.5-5.9-0.3c0.1,2.5,0.2,4.5,0,6.5c-0.1,0.8-0.4,1.5-1,2.1c-0.6,0.2-1.1,0.1-1.5-0.3
	c-0.2-1.4-0.1-2.8-0.1-4.1c0-2.8,0-5.6,0-8.4c-0.3-2.7,0.6-5.5-0.5-8.2c0-0.3,0-0.7,0-1c0.9-4.7,0.9-9.3,0-14c0-1.3,0-2.7,0-4
	c1.9-1.3,2.6,0.5,3.6,1.5c1.9,2,4.1,3.3,6.8,3.7c5.2,0.8,5.3,0.1,6.7-5c1-3.7,1.2-7,0.1-10.6c1-0.6,2-0.6,3-0.3
	c1.9,1.1,4.7,0.9,5.3,3.8c0,20.8,0,41.6,0,62.5C219.5,408.4,219,410.3,220,412z"/>
<path id="XMLID_446_" class="st1" d="M196,389c0-3,0-6.1,0-9.1c2.5,5.3,4.9,3.9,7.8,0.8c1.8-2,4-3.5,5-6.1c0.4-1,0.4-2.5,2.1-2.3
	c1.3,0.1,2.3,1,2.6,2.1c0.7,2.3,2.2,4.8,1.4,7.2c-1.1,3.1-1.1,6.4-0.5,9.3c1.3,6-0.8,11.4-1.8,17c-1,5.7-0.5,6.5,5.1,5.5
	c1-0.2,1.3,1.9,2.5,0.5c0.6,0.7,1.3,1.5,1.9,2.2c0.2,2.9-1.9,3.6-4,4c-5.7,1-8.4,6.2-12.7,9.1c-1.8,1.3,2.2,3.9-1.1,4.8
	c-3.3-2.7-6.5-5.5-9.2-8.8c-0.9-2.2-0.2-4.4-0.4-6.7c-0.2-2.1,0.5-4.4-0.5-6.4c0-1.3,0-2.7,0-4c1.1-3.9,0.2-7.8,0.5-11.7
	c0.2-1.8-0.6-3.6,0.6-5.3c0.3,0,0.6,0,0.9,0c2.7,5.3,0.5,11.1,1.4,16.8c1.4-1.5,3.4-1.9,5.4-2.5c2.8-0.8,4.3-3,5-5.7
	c0.6-2.1,0-4-2.4-3.9C200.4,395.9,198.1,392.7,196,389z"/>
<path id="XMLID_445_" class="st2" d="M214,341c-1,0-2,0-3,0c-4.2-0.9-8-2.8-11.8-4.5c-1-0.5-1.9-1.3-2.4-2.4
	c-0.2-0.4-1.8-1.4-2.1-1.2c-0.3-1-0.1-2-0.2-3c-0.3-2.3,0.6-4.7-0.5-6.9c0-1,0-2,0-3c2.6-2,5.2-4.1,7.8-6.1
	c7.6,2.2,13.4,7.1,19.1,12.2c0.7,0.7,1,1.7,0.5,2.7c-1.7,1.4-3.8,0.7-5.7,0.9c-3.6,0.4-4.3,1.7-2.1,4.6
	C215.3,336.6,215.8,338.7,214,341z"/>
<path id="XMLID_444_" class="st3" d="M195.2,333c1.8-1.8-0.2-4.6,1.6-6.4c1.7,0.4,1.5,2,1.1,2.7c-2.2,5.1,1.4,6.6,4.9,7.5
	c3.1,0.8,5.8,2.2,8.2,4.1c2.6,2.1,4.8,4.2,1.8,7.7c-0.5,0.6-0.5,1.6-0.8,2.3c-0.9,2.2,1.8,6.3-0.4,6.5c-4.3,0.4-9,1.1-13.1-2.3
	c-1.6-1.3-2-3.9-4.5-4.2c0-0.3,0-0.7,0-1c1.1-1.8,0.3-3.8,0.5-5.8C194.9,340.5,193.8,336.7,195.2,333z"/>
<path id="XMLID_443_" class="st4" d="M195.1,391c-0.8,5.6,1.1,11.5-1.1,17c0-7,0-14,0-21c0.3-0.4,0.6-0.4,0.9,0
	C195,388.3,195.1,389.7,195.1,391z"/>
<path id="XMLID_442_" class="st5" d="M195.2,333c-0.1,4-0.2,8-0.4,12c-0.3,0.4-0.6,0.4-0.8,0c0-5,0-10,0-15c0.3-0.4,0.6-0.5,0.9,0
	C195,331,195.1,332,195.2,333z"/>
<path id="XMLID_441_" class="st6" d="M194,355c1.6,4.7,1.6,9.3,0,14C194,364.3,194,359.7,194,355z"/>
<path id="XMLID_440_" class="st7" d="M194.9,387c-0.3,0-0.6,0-0.9,0c0-3,0-6,0-9c0.3-0.4,0.6-0.5,0.8,0
	C194.8,381,194.9,384,194.9,387z"/>
<path id="XMLID_439_" class="st8" d="M194.8,378c-0.3,0-0.6,0-0.8,0c0-2.7,0-5.3,0-8C196.1,372.5,194.6,375.3,194.8,378z"/>
<path id="XMLID_438_" class="st9" d="M194.9,330c-0.3,0-0.6,0-0.9,0c0-2.3,0-4.7,0-7C196.1,325.1,194.6,327.7,194.9,330z"/>
<path id="XMLID_437_" class="st10" d="M194.9,418c0,2.4,0,4.8,0,7.1c-0.3-0.1-0.6-0.1-0.9-0.1c0-2.3,0-4.7,0-7
	C194.3,417.6,194.6,417.6,194.9,418z"/>
<path id="XMLID_436_" class="st11" d="M194.9,418c-0.3,0-0.6,0-0.9,0c0-2,0-4,0-6C195.9,413.8,194.7,416,194.9,418z"/>
<path id="XMLID_435_" class="st12" d="M194,345c0.3,0,0.5,0,0.8,0c-0.1,1.7,1.1,3.6-0.8,5C194,348.3,194,346.7,194,345z"/>
<path id="XMLID_434_" class="st13" d="M238,278.9c7.2-7.4,14.4-14.7,21.5-22.1c1.1-1.1,2.3-1.7,4-1.7c20.6,0.2,41.2,0.3,61.7,0.4
	c0.5,0,1,0.2,1.4,0.3c12.5-0.6,24.9-0.8,37.4,0.1l0,0c0.2,1.5-1,1.8-2,2.2c-2,0.1-3.4,1.3-4.5,2.7c-3.3,4.1-7.6,5-12.5,4.3
	c-2.6-0.4-5.3-0.7-7.9-1.2c-1.5-0.3-3.2-1.1-3.6-2.5c-1-3.7-3.6-3.3-6.4-3.1c-7.3,0.2-14.7,0.2-22,0c-3.2-0.4-5.1,0.6-6.5,3.9
	c-1.5,3.7-4.4,6.3-9.8,4.9c7.9,4.6,15.4,5.9,23.4,3c3.2-1.1,6.3-1.3,9.5,0.7c3,1.9,6.8,1.5,10.2,1.6c6.6,0.3,13.4,2.4,19.9-1.9
	c3.3-2.2,6.4,0.3,7.5,5c-1.3,1.5-3.1,0.8-4.5,0.6c-3-0.4-3.2,1.4-3.4,3.5c-3.4,1.3-7.2-1.7-10.4,1.1c-5,0-10,0-15,0
	c-1-0.4-1.9-1.3-3.2-1.2c-7,0.7-14.1,0.2-21.1-0.1c-1.6-0.1-3.2,0.5-4.7,1.3c-7.1,0.1-14.2,0.2-21.3,0.2c-2.4,0-4.5,0.4-6.3,2.1
	c-2.2,0.6-3.6,2.1-4.3,4.3c-5.7,6.1-11.4,12.2-17.7,17.7c-5.4,2.3-7.1,2-10.7-2.5c-2-2.5-4.1-4.7-7.2-5.9c-3-1.2-4.2-3.6-2.7-6.9
	l0,0c3.5,0.3,6,2.6,8.8,4.3c2.1,1.3,3.1,1,3.5-1.8C239.8,287.7,238.4,283.4,238,278.9z"/>
<path id="XMLID_433_" class="st13" d="M363,403.2c11.2,11,22.5,22,33.8,33c2.7,2.7,5.5,5.2,8.3,7.8c0.3,2.4-2.3,1.8-3.2,3
	c-2.5,4.1-5.8,7.2-10,9.5c-2.5,1.3-4.1,3.6-4,6.5c0,3-1.4,4.5-4.2,4c-3-0.5-3.5,1.7-4.6,3.4c-8.7-9.1-17.4-18.2-26.1-27.2
	c4.2-8.4-1.5-12-7.4-15.5c-2.7-1.6-4.5-3.8-5.6-6.7c-1.1-2.9-2.3-5.9-4.3-8.4c-2.1-2.7-1.6-5,1.3-6.6c2.3-1.3,3.5-2.9,2.8-5.6
	c-0.8-3.1,0.8-4.2,3.7-4.4c6.2-0.4,12.4-0.8,16.5,5.4C360.4,402.2,361.4,403.4,363,403.2z"/>
<path id="XMLID_432_" class="st13" d="M351,280c-0.3-5.2,1.5-6.2,8-4c2.6-0.2,5.1-1,7.7-1.5c4.2-0.8,7.2-3.2,9.6-6.6
	c3.6,3.6,7.2,7.2,10.9,10.8c-2.5,3.5-6.1,2.2-9.4,2.2c-1.7,0-3.9-2.2-5-0.5c-1.4,2,1.5,3.2,2.4,4.8c1.7,3,3.5,5.9,6.3,8.1
	c6.1,4.6,10.7,4.3,15.8-1.5c0.5-0.5,0.9-0.9,1.7-0.7c6,4,10.5,9.4,15.2,14.6c0.5,1.9-0.9,2.1-2,1.7c-4.1-1.4-6,1.6-7.5,4.1
	c-1.6,2.6,1.1,4.6,2.6,6.4c3.4,4,9.1,5.5,13.4,3.7c1.3-0.6,2.7-0.9,2.9-2.9c0.3-3.3,2-1.4,3.3-0.6c1.7,0.8,2.5,2.1,2,4
	c-0.9,1.3-0.9,2.6,0,4c0,6.3,0,12.7,0,19c-0.4,0.9-1.1,1.7-2,2.1c-2.6,1.1-4.8,2.4-4.3,5.8c0.5,3,1.5,5.4,5,5.8
	c0.7,0.1,1,0.7,1.4,1.3c0,1.3,0,2.7,0,4c-1.8,1.6-4.1,2.3-6.3,2.7c-4.7,0.9-7.3-1.8-6.4-6.4c0.4-2.3,0.5-4.6,0.8-6.9
	c0.4-4.3,1.8-7.8,6.3-9.8c4.5-2,4.6-5,0.7-8.3c-1.3-1.1-2.3-2.4-3.2-3.8c-1.1-1.8-2.6-3.1-4.7-3.4c-4-0.6-7.6-2.2-11-4.4
	c-1.5-0.9-3.1-1.2-4.8-0.6c-1.8,0.7-3.2-0.1-4.5-1.3c-2.4-1.9-2.5-4.1-1.2-6.6c0.8-1.6,1.8-3.2,2.2-5c0.5-2.3-0.4-4.1-2.8-3.2
	c-6.4,2.5-10-2-14.1-5c-2.1-1.6-4-3.4-6.8-4c-2-0.4-3.2-2-2.9-4c0.3-2.9-1.2-4.6-3.4-6.2c-2.8-2-5.7-4.1-8.1-6.6
	c-1.7-1.8-3.6-2.2-5.8-0.7C352.3,280.5,351.6,280.6,351,280z"/>
<path id="XMLID_431_" class="st13" d="M294,490c-10.5,0.2-20.9,0.5-31.4,0.6c-3.9,0-5.5-3.2-7.6-5.7c1.9-1.5,1.9-1.5,3.5-0.5
	c1.6,1,2.9,2.6,4.8,3.1c1.1,0.2,2.2,0.2,3.4,0c4.4-2.2,6.3-6.7,9.2-10.2c1.4-1.7-0.2-2.7-1.7-3.3c-3.5-1.2-5.4-4.1-7.8-6.7
	c-7.5-8.2-15.5-15.9-25.5-21.2c-2-1.1-3.6-0.5-4.9,0.9c-2.8,3.1-6.5,4.6-10.2,6.1c-2.1-0.8-3.1-2.4-1.1-4c2.6-2.1,4.6-4.5,6.8-6.9
	c2.5-2.7,6.8-1.7,10.2-0.6c2.2,0.7,4.1,0.9,6.2,0.3c7.4,7.6,14.7,15.2,22.1,22.7c3.8,1.5,7.7,0.2,11.5,0.7c8,7.4,18.3,7.6,28.2,9
	c2.3,0.3,4.6,0.6,6.8,1.5c2.9,1.2,6.2,2.2,6.4,6.1c0.3,3.7-1.8,6.2-5,7.9c-3.7,0-7.3,0-11,0c-0.3-1.4,0.8-1.6,1.7-2
	c1.2-0.5,2.8-0.8,2.3-2.6c-0.4-1.5-1.8-1.8-3.2-2C303.1,482.6,296.6,485.7,294,490z"/>
<path id="XMLID_430_" class="st3" d="M376.3,267.9c-1.1,5.5-12.3,10.8-17.3,8.1c-2.5-5.5-4.5-6.5-8.7-3c-4.8,4-10.1,1.5-14.7,1.2
	c-5.5-0.4-11.8,1.2-16.8-3.5c-1.1-1-4.5,0-6.5,0.8c-7.3,2.7-14.2,2.1-21-1.7c-0.7-0.4-1.5-0.7-2.3-0.8c-1.5-0.2-3.3-0.1-2.5-2.4
	c0.6-1.7,1.9-1.4,3.3-0.8c4.7,2.4,7.1-1.2,8.1-4.4c1.1-3.7,2.8-4.9,6.3-4.4c8.1,6.2,14.8,6.2,24,0c2.6,0.1,5.1-0.8,6.2,3.3
	c0.9,3.4,5,2.2,7.8,2.9c6.3,1.7,11.8,1.4,15.7-4.7c1.1-1.8,2.7-1.6,4.4-1.6c0,4.1,2.3,7.5,3.5,11.2c1.1,3.3,3.7,1.6,5.8,1
	c1.5-0.4,1.7-3,3.9-2.4C375.6,267.2,376,267.5,376.3,267.9z"/>
<path id="XMLID_429_" class="st14" d="M267,307.9c0.4-3,3-4.2,4.9-5.9c6-3,12.4-5.1,19.1-5.9c6.5-0.2,13.1,0.1,19.6,0
	c1,0.3,2,0.7,1.4,2c-0.6,1.4-2,1.7-3.4,1.6c-3.3-0.4-6.6-0.7-9.8,0.8c-4.6,2.1-9.1,4-14.4,4.4c-2.2,0.2-2.9,4.8-6.6,4.7
	c-0.6,0,0.1,1.7,0.9,2.3c1.1,0.8,2.4,0.5,3.2-0.4c3.2-3.7,5.8-1.6,8.3,0.8c1.4,1.4,3,2.7,1.3,4.9c-0.9,1-2.7,0.5-3.4,1.9
	c-0.8,1.2-1.7,2.3-3.1,3c-4,1.3-5.3,6-9.3,7.3c-1.4-0.3-9,2.2-9.8,3.2c-2.3,2.8-3.5,6.4-6.1,9c-1.5,1.6-0.1,3.1,0.4,4.6
	c-0.2,0.7,0.1,1.6-0.8,2.1c-0.3,0.2-0.7,0.4-1.1,0.3c-1.9-0.7-0.2,1.3-1,1.4c-4,4.8-8.2,5-15.9,0.8c-1.7-2.9-3.1-6.1-5.2-8.7
	c-0.1-1.5-0.4-3,1-4.2c1-0.5,2-0.3,2.9,0.1c2.7,1.4,3.5,0.4,4.5-2.3c1.5-4.1,4.7-6.9,9-7.9c2.6-0.6,3-2.3,3.4-4.2
	c0.7-3.5,2.5-6.1,6.2-6.9c2.8,1.1,1.2,3.4,1.3,5.2c0.1,1.7,0.1,3.5,2,4.2c2,0.7,3.5-0.4,4.6-2c3-4.2,2.2-7.6-2.4-10.2
	c-1.5-0.8-2.1,1.3-3.4,0.7C261.7,311,266,309.9,267,307.9z"/>
<path id="XMLID_428_" class="st3" d="M226,453c3.4-3.3,8.4-4.6,11.4-8.5c0.4-0.5,2.3-0.7,2.8-0.2c3.9,3.9,9.9,4.6,13.5,9
	c5.2,6.2,12.6,10.2,16.7,17.5c1.1,1.9,3.7,2,5.7,2.9c1.3,0.6,3.4,1.3,1.9,3.1c-3.6,4.2-5.8,9.6-11,12.3c-2-3.6,1-5.9,2.4-8.5
	c1.4-2.6,1.6-4.2-1.5-5.3c-1.1-0.4-2-1.2-2.9-1.9c-2-1.5-3.8-2.1-5.4,0.4c-1.4,2.1-4.5,2.4-5.1,5.2c-0.6,1.2-0.2,3.1-2.3,3.1
	c-9.4-8.2-17.6-17.6-26.3-26.5C225.6,454.6,225.3,453.8,226,453z"/>
<path id="XMLID_427_" class="st15" d="M318,489.9c1.5-3,5.6-5.5,3.5-9.1c-2-3.6-6.5-4.2-10.4-4.8c-8.1-1.3-16.4-1.2-24.1-4.9
	c-2.4-1.1-4.2-2.5-5.1-5.1c3.4-1,6.9-0.3,10.4-0.5c6.1,3.2,12.8,1.7,19.1,2.4c6.5,0.7,12.7,2.5,19.1,3.7c6.2,1.2,12,0.6,17.7-1.2
	c5.5-1.7,10.6-2.2,15.7,0.7c1.1,0,1.6,0.9,2.1,1.7c0.4,2.7-1.8,3.5-3.5,4c-3.7,1.2-6.7,3.5-9.8,5.7c-4,2.9-4,3-0.4,6.5
	c-0.8,1.1-2,1-3.1,1C338.8,490.1,328.4,490,318,489.9z"/>
<path id="XMLID_426_" class="st16" d="M259.2,398.6c1.5,1.8,3.1,3.6,4.6,5.4c-0.7,1.1-1.4,2.3-1.9,3.5c-4,4.1-2.2,8.4-0.3,12.6
	c-0.7,2,0.4,3.8,0.6,5.7c-2.1,1.3-3.3-0.5-4.7-1.5c-2-1.4-3.6-3.4-5.9-4.4c-1.1-0.6-2-1.4-2.1-2.7c0.4-2,0.8-3.9-1.7-4.9
	c-0.3-0.1-0.6-0.3-0.8-0.5c-1.2-1.1-8-2.8-9.1-2.3c-0.4-0.2-0.8-0.5-1.2-0.9c-0.3-0.4-0.5-0.8-0.7-1.3c-0.1-2-0.4-4,0.2-5.9
	c1.7-1.7,2.3-3.9,2.8-6.1c1.2-5.5,2.3-11.1,4.5-16.3c0-2.9,2-5.4,1.2-8.4c-0.8-2.2-0.9-5.1-4.4-5c-2.3-1-3.4-2.9-4.1-5.2
	c-0.1-3.1,2.1-3.3,4.3-3.5c4.1-0.1,6.2,3.5,9.4,5.2c0.5,0.2,0.7-0.3,0.8-0.8c0.5-1.8,1.1-3.8,3.4-3.5c2.5,0.3,2.8,2.5,3,4.5
	c0.1,1.5,0.1,3,0.1,4.4c0.3,7-0.6,14,0.3,20.9c0.6,3.3,0.1,6.7,0.3,10C258.2,398.2,258.4,398.6,259.2,398.6z"/>
<path id="XMLID_425_" class="st0" d="M396,321c0.7,0.4,1.6,1.4,2.1,1.3c8.3-3.2,13.5,5,21,5.7c3.4,0.3,4.5,6.8,8.8,8.4
	c0.1,0.1,0.1,0.6,0.1,0.9c0.6,3.5-0.3,6.6-4,7.4c-4.1,0.9-5.2,3.7-5.7,7.1c-0.5,3.6-0.2,7.2-1.4,10.8c-0.7,2.1,3.3,3.9,6.3,2.8
	c1.9-0.7,3.6-1.6,5.7-1.3c0,1.7,0,3.4,0,5c0.6,5.5-1.8,9-6.9,10.9c-1.4,0.5-2.6,1.5-3.7,2.5c-3.9,3.4-4.4,7.1-1.4,11.3
	c1.1,1.5,2.3,3,2.6,4.8c0.8,4.7,1.8,8.6,7.2,10.7c3.4,1.3,1.4,5.5,1.3,8.5c-0.7,0.7-1.4,1.4-2.2,2.2c-1.3,0.1-1.6-0.9-2-1.7
	c-1.2-5.2-4-8.5-9.8-8.4c-3.3,0-6.2,0.4-7.4,4.2c-0.9,2.7-3.4,3.9-5.6,5.3c-1.1,0.6-1.5,2.5-3.3,1.8c-0.3-0.3-0.6-0.7-1-1
	c-0.4-1.6-0.6-3.4,1.1-4.3c2.8-1.6,3.6-4.4,5.1-6.9c0-0.3,0.1-0.6,0.3-0.9c0.3-0.4,0.6-0.8,0.8-1.2c1.4-2.3,3.8-1.6,5.9-1.9
	c4.8-0.6,5.9-3.1,3.4-7.1c-0.4-0.7-1-1.3-1.6-1.9c-4.2-5.1-3.7-11.8,1.2-16.3c4.5-4.1,4.7-4.9,0.3-9.1c-3.6-3.4-3.3-7-1.6-10.9
	c1.9-4.4,4.6-8.5,3.9-13.6c-0.1-0.8,0.4-1.7,1-2.2c2.3-2.3,3.7-4.5,1.5-7.8c-2.6-3.8-4.7-7.8-10.4-6.3c-1.1,0.3-2.2,0.6-3.3,0.8
	c-0.5,0-0.9-0.2-1.2-0.5c-2.6-2-5-4.3-7-6.9C395.4,322.4,395.4,321.7,396,321z"/>
<path id="XMLID_424_" class="st17" d="M363,403.2c-3.5,1.2-4.1-2.5-6-3.9c-2.2-1.6-13.4-3.4-15.7-2.2c-1.6,0.9-0.7,2-0.4,3
	c1.1,3.1,0.6,5.2-2.9,6.4c-3.2,1.1-2.6,2.4-1.3,5.8c3.5,8.7,9.4,14.6,16.7,19.9c4.4,3.2,2.6,7.4-0.7,10.9
	c-9.6-9.5-19.1-18.9-28.7-28.4c-3-2.9-2.8-5.7,0.2-8.6c5.1-5,10.1-10.2,15.2-15.1c4.2-4,7.6-3.9,11.6,0.2
	C355.1,395.2,359,399.2,363,403.2z"/>
<path id="XMLID_423_" class="st3" d="M401,446c0.9-1.6,3.2-0.4,4-2c4.7,3.1,8.6,7,12.1,11.3c2.1,2.6,4.5,5,7.4,7
	c1.9,1.3,5.9,3,2.7,6.8c-3.5-0.2-6.3,1.4-8.8,3.7c-1.6,1.4-3.2,3-5.1,3.8c-3.4,1.5-5.3,4.1-7.1,7.3c-1.6,2.9-2.8,6.3-6.6,7.2
	c-4.7-2.8-8-7.2-11.7-11.1c9-7,15.9-16.4,25.7-22.4c-2-5.7-6.4-8.6-11.7-10.7C401.6,446.7,401.3,446.4,401,446z"/>
<path id="XMLID_422_" class="st18" d="M367,316.2c1.5,0.3,2.3,1.5,3,2.7c0.9,1,2.3,1.5,2.6,3c0.2,2,1.8,3,3.1,4.2
	c3.3,3.3,7.5,5.7,9.5,10.3c0.2,0.5,0.8-0.8,1.5-0.6c1.6,0.8,2.1,2,1.5,3.7c-0.3,3.8-0.5,7.5,0.2,11.2c0,3.7,0,7.4,0,11
	c0,2.2,0,4.3,0,6.5c-3.6,1-8.3-2.7-7.8-6.4c0.2-1.6,0.7-3.2-0.3-4.7c-0.3-4-0.9-7.9-1.7-11.8c0.4-1.1,2.1-0.2,2.2-1.3
	c0.1-1-1.1-1.4-1.9-1.9c-1.3-1-2.8-0.3-4.2-0.3c-4-0.1-6-4.7-10.1-4.6c-1.4-0.2-3-0.1-3.7-1.7c1-5,1.3-10-0.7-14.8
	c-1.2-2.9-0.8-5.2,2.5-6.3c1.6-0.1,2.3,1.1,3.1,2.1C366.6,317.8,366.6,316.2,367,316.2z"/>
<path id="XMLID_421_" class="st19" d="M364,471.2c-0.3,0.2-0.7,0.6-0.8,0.5c-7.1-4.1-13.8,0.1-20.4,1.6c-6,1.3-11.5,0.2-16.9-1.1
	c-8.1-1.8-16.1-3.4-24.5-3.3c-3.1,0.1-6.3,0-8.5-3c6.6-1.1,13.2-0.2,19.7-0.5c8.1-0.3,16.2,0.5,24.2-0.4c4.5,0.4,6.6-3.3,9.2-5.9
	c2.1-2,3.5-2.6,5.8,0.1C355.7,463.6,360,467.3,364,471.2z"/>
<path id="XMLID_420_" class="st20" d="M415,458c-1.2,2.5-4,2.9-5.9,4.3c-6,4.3-10.4,10.1-15.7,15c-1.6,1.5-3.1,2.7-5.4,2.8
	c-0.3-0.3-0.7-0.7-1-1c2.6-2.7,4.5-6,7.3-8.6c1.2-1.1,3.1-2.4,1.5-4c-1.4-1.4-2.7,0.6-3.4,1.8c-1.8,3.2-4.3,4.5-7.9,3.2
	c-1.6-0.6-2.9,0.5-4.4,0.4c-0.4-0.5-0.9-1.1-1.3-1.6c-0.6-3.3-0.8-6.1,4.2-4.6c1.7,0.5,3.9,1.1,3.3-2.7c-0.5-2.9,1.1-5.8,4.1-7.3
	c4.5-2.3,8.2-5.3,10.6-9.8c0.3,0,0.7,0,1,0c2,1.1,3,2.8,3.4,5.1c0.7,3.7,2.1,6.8,6.9,5.4C413.5,456.1,414.5,456.7,415,458z"/>
<path id="XMLID_419_" class="st21" d="M221,329c-1.5-4.4-5.7-6-9-8.5c-3.3-2.4-6.8-4.4-10.2-6.6c3.1-3,6.2-5.9,9.3-8.9
	c1.6-1.4,3.6-1.3,5-0.1c4.6,3.9,10.1,6,15.4,8.7c1.2,0.6,2.2,1.4,2.8,2.7c-2.8,5-8,7.9-11.3,12.5c-0.3,0.2-0.5,0.2-0.8,0.2
	C221.8,329.4,221.4,329.4,221,329z"/>
<path id="XMLID_418_" class="st15" d="M226.9,289.8c0,3.3,0.8,5.9,4.7,6.3c2.3,0.3,3.9,2.3,4.8,4.1c2.5,4.7,6.2,5.9,11,4.9
	c-3.6,4.5-7.7,8.4-12.1,12.1c-5.1-5.4-12.5-7.4-18.1-12.1c-1.1-0.9-3.4-0.8-3.2-3.1C218.3,297.9,222.6,293.9,226.9,289.8z"/>
<path id="XMLID_417_" class="st22" d="M204.1,433.9c1.9-2.5-2.1-2.9-1.7-5.3c1.8,0,3-1.5,4.4-2.5c3.9-2.6,6.2-8.2,12.3-7.4
	c1.2,0.1,2.2-1.4,2.8-2.6c2.4,1.3,3.8,3.5,5.1,5.8c2.1,6.3,0.3,10.9-6.2,13.3c-3.2,1.2-3.7,5-6.7,6.4c-1.2,0.3-2.1-0.5-3.1-0.7
	C208.4,438.8,206.1,436.5,204.1,433.9z"/>
<path id="XMLID_416_" class="st23" d="M261,420c-4.1-4.8-3.7-10.9,1-13c2.5-0.1,3.7,1.9,5.3,3.3c1.1,0.9,2,2.5,3.7,0.9
	c2.5,1.4,4.3,3.4,5.7,5.8c-0.6,1.3-0.1,2.1,0.9,2.9c3,2.5,5.5,5.5,8.3,8.2c1.7,1,3.7,1.3,5.5,2c1.9,0.7,3.9,1.4,4,3.8
	c0.1,2.1-1.7,3-3.4,3.7c-7.5-1-13.9-5.1-21.2-6.9c-1.4-0.4-2.2-1.7-2.2-3c0.1-2.5-1.6-4.2-2.5-6.3C264.8,418.4,263.1,419.1,261,420z
	"/>
<path id="XMLID_415_" class="st0" d="M211.1,440.8c0.7-0.9,1.4-0.8,1.9,0.2c6.7-0.8,10.8-5.5,14.5-10.5c1.2-1.6,1.7-3.6,3.6-4.7
	c0.3,0.2,0.6,0.3,1,0.5c1.5,1.9,3.4,3.3,3.5,6.3c0.1,2.4,2.5,4.3,4.6,4.7c2.9,0.5,4.7,2.2,6.7,3.7c0.4,0.4,0.7,0.7,1.1,1.1
	c-1.4,2.4-2.9,3.5-5.4,1.2c-2.8-2.5-6.4,0.4-9.5-1.1c-0.2-0.1-1.4,0.8-1.4,1.1c0.5,4.3-3.4,4.9-5.8,6.4c-2.5,1.6-0.6,2.2,0.1,3.3
	c0,0.8-0.1,1.6-0.1,2.5C220.8,450.7,215.5,446.2,211.1,440.8z"/>
<path id="XMLID_414_" class="st2" d="M396,321c0,0.7,0,1.4-0.1,2.2c-1.3-0.6-2.3-1.7-3-2.9c-0.3-0.6-0.6-1.2-0.7-1.8
	c-0.8-6.2-0.8-6.2-7.4-6.1c-10.6-10.5-21.8-20.2-31.9-31.1c-0.5-0.4-0.5-0.8,0.1-1.2c0.4-3.5,2.5-3.2,4.5-1.7
	c4.4,3.4,8.7,7.1,13,10.7c0.4,0.3,1,0.8,0.9,1.1c-2,8.8,7.4,7.4,10.6,11.6c3,4.1,7.6,6.3,13.3,3.5c2.3-1.1,4,2.4,2.7,5.5
	c-1,2.3-2.1,4.5-3.3,6.7C393.9,319.1,395.7,319.8,396,321z"/>
<path id="XMLID_413_" class="st13" d="M428,417.8c-0.1-1.3-0.5-2.5-0.2-3.9c0.6-2.5-0.8-4.7-3.2-4.7c-4.8,0-5.3-3.4-5.5-6.7
	c-0.2-3.2-1.4-5.8-3.3-8.2c-3.4-4.4-2.8-9.8,1.6-13.1c1.1-0.8,2.1-1.6,3.3-2.2c4.2-2.2,8.2-4.4,8.1-10.1c0,7.7,0,15.3,0,23
	c-0.4,0.4-0.7,0.7-1.1,1c-7.1,5.1-7.1,6.9,0,12.3c0.5,0.4,0.8,1,1.1,1.6C428.6,410.6,430.1,414.3,428,417.8z"/>
<path id="XMLID_412_" class="st21" d="M426.9,318c-0.9,0.2-2.3-1.1-2.5,0.2c-0.7,3.3-4,6.4-7.5,5.7c-4.2-0.8-8.3-1.9-11.1-5.7
	c-4-5.3-3.3-9.3,2.5-12.7c1.2-0.7,2.2-0.4,3.2,0.4c1,0.8,2,1.3,2.8-0.2C418.4,309.8,422.7,313.9,426.9,318z"/>
<path id="XMLID_411_" class="st24" d="M337.9,319.1c-0.3,0-0.6-0.1-0.8-0.2c-2.4-1.8-5.3-0.2-7.9-1.2c-3.6-0.9-7.5,0.6-11-1.3
	c-1.1-4.6-1.2-8.9,3.1-12.1c4.5-1.3,9.2-1.3,13.7-1.6c3.9-0.3,7.5,4.7,7.7,10c0.1,2.3-0.2,4.6,0,6.9c-0.1,0.5-0.2,1-0.5,1.4
	C340.2,321.7,339.5,319.4,337.9,319.1z"/>
<path id="XMLID_410_" class="st25" d="M425,418c0.3,0.7,0.6,1.3,0.8,2c-1.7,2.9-4.4,4.9-6.8,7.1c-4.5-1.3-8.9-2.3-12.9,1.3
	c-0.5,0.4-1.3,0.1-1.8-0.4c-2.2-2.3-4.4-4.6-6.6-6.9c1.5-0.5,1-2.5,2.3-3.1c3,1.1,4.5-1.1,6-2.9c1.5-1.8,3.3-3.2,5.5-4
	c4-1.5,7.4-1.2,9.7,3C422.1,415.7,423.5,416.9,425,418z"/>
<path id="XMLID_409_" class="st26" d="M398.9,291c-4.2,7.9-11.1,8.8-18.4,3.2c-4.4-3.4-5.5-9-9.8-12.2c-1-0.8-0.9-2.1,0.1-3.1
	c1.1-1.1,2.5-1.3,3.7-0.5c4.2,2.6,8.4,1.4,12.7,0.2c0.7,0.7,1.3,1.3,2,2c0.6,2.8-2.8,0.9-3.1,2.6c5.7,8.3,5.7,8.3,11.2,5.7
	C398.1,289.4,399,289.8,398.9,291z"/>
<path id="XMLID_408_" class="st27" d="M263,317c-3,2-5.1,4.3-5.3,8.4c-0.1,1.9-1.3,5.2-4.9,3.5c-1-0.5-1.6-0.3-1.7,0.8
	c-0.2,2-0.9,3-3.1,2.7c-1.6-0.1-2.1,1.6-2.5,2.8c-1.8,5.9-1.8,5.9-7.5,2.8c-0.3-3,3.4-3.5,3.9-6c7.6-7.7,15.2-15.5,22.9-23.1
	c0.5-0.5,1.4-0.6,2.2-0.9c0.7,2.5-3.7,3.3-2,6.1C265.6,315.9,264.2,316.3,263,317z"/>
<path id="XMLID_407_" class="st28" d="M399.6,491.2c2.7-3.5,5.6-6.8,7.3-11c0.4-0.9,1-2,1.8-2.3c5.4-2.1,9.1-6.6,13.9-9.5
	c2.3-1.4,3.2-0.4,4.5,0.7c-6.3,7.5-13.4,14.3-20.5,21C404.7,492.1,402.3,493,399.6,491.2z"/>
<path id="XMLID_406_" class="st29" d="M312,297c-7.3,0-14.7,0-22,0c-3.9,1.7-8.2,0-12.2,1.3c-0.6,0.2-1-0.7-0.9-1.4
	c2.2-1.5,4.6-1.9,7.2-1.9c18.6,0.1,37.2,0.3,55.8-0.1c5.9-0.1,9.7,2,12.9,6.3c0.6,0.8,1.4,1.4,2.1,2.1c-0.1,1.1-0.9,1.2-1.7,1.2
	c-0.6-0.1-1.1-0.3-1.5-0.7c-3.8-4.6-8.6-6-14.6-5.6c-7.3,0.5-14.7,0.2-22,0.1C313.9,298.2,312.8,298,312,297z"/>
<path id="XMLID_405_" class="st3" d="M238,278.9c4.3,4.5,1.8,10.3,2.6,15.5c0.3,1.9-1.6,3.4-3.8,2c-3.3-2.1-6.6-4.3-9.8-6.5
	C230.3,285.9,233.9,282.2,238,278.9z"/>
<path id="XMLID_404_" class="st30" d="M361,335c1,1.5,2.6,0.9,4,1c2.8,2,6,3.7,6.5,7.6c-1.1,1.7-3.4,2-4.4,3.7
	c-0.3,0.3-0.7,0.6-1.1,0.7c-1-0.7-1.8-1.5-2.1-2.7c-3-4.5-6.7-8.3-11.2-11.2c-1.3-1.3-2.5-2.6-3.8-3.9c-0.9-2.4-3.1-3.6-4.6-5.5
	c-0.9-1.2-2.9-1.7-2.3-3.8l0,0c3.1-1.6,5,0.6,7.1,2.1c2.9,3.2,6.2,6,9.2,9c0.8,0.8,1.7,1.4,2.4,2.3C360.8,334.6,360.9,334.8,361,335
	z"/>
<path id="XMLID_403_" class="st31" d="M375.3,266.9c-1.7,1.5-2,4-5.3,4.4c-4.2,0.6-6,0.6-6.2-4.4c-0.1-3.2-4.6-5.9-1.8-9.9
	c0.8,0,1.6-0.2,2-1C368.3,259,371.8,262.9,375.3,266.9z"/>
<path id="XMLID_402_" class="st20" d="M294,490c-2.4-4.2,2.1-5.2,3.8-5.9c3.1-1.4,6.6-2.5,10.2-2c2.3,0.3,4.8,0.9,4.8,4
	c0,2.8-2.1,2.9-4.2,3c-0.6,0-1.1,0.6-1.7,0.9C302.7,490.5,298.3,490.4,294,490z"/>
<path id="XMLID_401_" class="st32" d="M260.1,346c-4.3-0.7-2.9-4.9-1.9-5.6c3.7-2.3,4.8-6.2,6.7-9.5c0.8-1.4,1.6-2.2,2.9-1.8
	c2.5,0.7,4.2-0.1,6-1.8c2.6-2.4,0.4,2.4,2.1,1.7c-1.2,4.4-5.3,6.3-8,9.4c-1.5,1.7-3.3,3.1-4.9,4.7
	C262.1,344.1,261.1,345.1,260.1,346z"/>
<path id="XMLID_400_" class="st28" d="M380.2,471.9c0.9-1.9,1.7-3.4,4.3-1.8c2.9,1.8,5.2,1,6.7-2.3c0.8-1.8,2.2-3.9,4.9-3.5
	c1.3,0.2,1.7,1.3,1.9,2.6c0.4,2.7-1.2,3.9-3.3,4.9c-1.2,0.5-2.6,1-2.3,2.8c0.5,4.2-3.9,2.6-5.3,4.5
	C384.4,476.9,382,474.8,380.2,471.9z"/>
<path id="XMLID_399_" class="st33" d="M352.4,489.2c-1.6-0.5-4,0.7-4.3-2.2c-0.3-2.5,1.5-3.5,3.1-5.1c4.4-4.1,10.8-4.7,14.9-9.1
	c2.4,1,1.8,2.3,0.3,3.7C361.7,480.7,357.6,485.5,352.4,489.2z"/>
<path id="XMLID_398_" class="st34" d="M377,399c-2.5-1.5-4.3-3.7-6.1-6c0.2-0.7,0.6-1.2,1.3-1.4c1.5,0,2.4,1.1,3.6,1.8
	c3,2.4,5.7,2.2,8.6-0.4c1-0.9,3.3-3.5,4.1,0.5c-0.3,4.1,0.6,8.3-0.5,12.3c-1.5,2.2-2.9,1.4-4.1-0.3c-0.9-1.2-1.2-2.9-3-3.2
	C380,400.9,378.4,400.1,377,399z"/>
<path id="XMLID_397_" class="st35" d="M221,329c0.4,0,0.8,0,1.2,0.1c-0.7,2.1-1.3,4.2-2,6.3c-0.3-0.2-0.6-0.4-0.5-0.8
	c0.2-0.6,0-1-0.1-0.3c-0.4,2.9,0.5,5.9-0.6,8.8c-1.9,0-4,0.3-5-2c-0.3-2.4,1.1-5.4-2.7-6.5c-1.2-0.3-1.6-1.7-1-2.9
	c0.9-1.6,2.2-3.7,4-3.3C216.6,328.8,219,327.6,221,329z"/>
<path id="XMLID_396_" class="st36" d="M330,317c2,0,3.9,0,5.9,0c1.6,0,1.6,0.7,1.1,1.9c-16.3,0.1-32.6,0.1-49,0.2
	c-0.4-2.8,1.7-1.7,2.9-2c0.8-0.5,1.7-0.9,2.6-1.2C305.8,315.1,317.9,316,330,317z"/>
<path id="XMLID_395_" class="st20" d="M428.9,360c-3.4-0.4-6.3-0.6-7.3-5.3c-1.1-4.8,0.3-7.2,4.6-8.6c0.9-0.3,1.8-0.7,2.7-1.1
	C428.8,350,428.9,355,428.9,360z"/>
<path id="XMLID_394_" class="st37" d="M404.3,428c0.9-0.4,2.1-0.5,2.7-1.1c4.2-4.7,8.1-2.6,12.1,0.2c-0.4,0.5-0.7,1.1-1.1,1.6
	C409.9,436.3,412.9,437.6,404.3,428z"/>
<path id="XMLID_393_" class="st21" d="M428.8,407c-2-1.7-5.2-1.3-6.6-3.8c-2.8-4.9,0-9.7,6.7-11.2C428.9,397,428.8,402,428.8,407z"
	/>
<path id="XMLID_392_" class="st25" d="M231,425.9c-2.9,7.2-7.4,12.9-14.9,15.6c-1.2,0.4-2.2,0.8-3.1-0.5c3.5-4.3,8.1-7.4,12.7-10.3
	c1.5-1,1.9-3,0.7-4.4c-1.6-1.9,0-3,0.6-4.3C228.4,423.2,229.7,424.5,231,425.9z"/>
<path id="XMLID_391_" class="st38" d="M397.2,288.9c-3.3,5.2-5.5,5.1-8.9-0.4c-0.4-0.6-0.6-1.2-1-1.7c-3.9-5.2-3.9-5.2,1.9-6.2
	C391.9,283.4,394.5,286.1,397.2,288.9z"/>
<path id="XMLID_390_" class="st39" d="M219,343c0-3.6,0-7.3,0-10.9c0.3,0,0.5,0,0.8,0c0.1,1.1,0.2,2.1,0.4,3.2
	c0,25.6-0.1,51.1-0.1,76.7c-1.7-1.6-1-3.8-1-5.7C219,385.2,219,364.1,219,343z"/>
<path id="XMLID_389_" class="st13" d="M402.9,330c0.4,0,0.7,0,1.1,0c0.5,0.4,0.8,1,1.1,1.6c0.9,11.5,0.3,23,0.3,34.5
	c0,2.1,0,4.3,0,6.4c0.2,2.2,0.1,4.4,0,6.6c-0.1,5-0.1,9.9,0,14.9c0,4.7,0.7,9.5-1.5,14c-0.3,0-0.5,0-0.8,0c0-24.2,0-48.4,0-72.5
	C403.2,333.7,403,331.8,402.9,330z"/>
<path id="XMLID_388_" class="st28" d="M252.1,481.9c1.4-1.1,0.8-2.6,0.9-3.9c3.9-1.3,11.7,2.7,12.5,6.5c0.4,2.2-1.2,3.2-2.5,4.5
	c-2.2-0.5-3.4-2.4-5.1-3.7c-0.9-0.7-1.7-1.8-2.8-0.4C253.7,484.3,252.8,483.3,252.1,481.9z"/>
<path id="XMLID_387_" class="st40" d="M337,465.1c-1.5,1.5-3.5,0.9-5.2,0.9c-12.9,0.1-25.9,0-38.8,0c-3.7,0-7.3,0-11,0
	c-4-0.6-8.2,1.2-12-1.1c20.5,0,41-0.1,61.5-0.1C333.3,464.8,335.2,465,337,465.1z"/>
<path id="XMLID_386_" class="st41" d="M388,362c0-4,0-8,0-12c-0.8-3.7-0.8-7.3,0-11c0-1.4-0.7-2.4-2-3c-4.9-3.7-8.6-8.7-13.6-12.2
	c-0.5-0.4-0.8-1-0.4-1.7c-0.7-1-1.3-2.1-2-3.1c5.4,2.5,8.3,8,12.9,11.4c5,3.8,7.1,8.3,6.2,14.7c-0.7,5.6-0.2,11.3-0.3,17
	C388.6,362.4,388.3,362.4,388,362z"/>
<path id="XMLID_385_" class="st42" d="M214,302c6.7,4.1,13.5,7.9,19.7,12.8c0.8,0.7,1.3,1.4,1.6,2.4c0,0,0,0,0,0
	c-0.5,0.2-0.9,0.1-1.3-0.2c-2.7-2.4-5.7-4.3-9.3-5.1c-2.6-0.6-4.6-2.4-6.5-4.2c-2-2-4.3-3-7.1-2.7C212.1,304,213,303,214,302z"/>
<path id="XMLID_384_" class="st15" d="M297,280.9c3.5-4.9,8.4-1.7,12.7-2c3.9-0.3,8,0.7,11.8-0.3c2.7-0.8,3.6,0.4,4.5,2.3
	C316.3,280.9,306.7,280.9,297,280.9z"/>
<path id="XMLID_383_" class="st43" d="M246.9,441c-2.4-2.4-5.9-1.7-8.8-3.2c-4.9-2.6-3.4-8.1-6.1-11.5
	C237.4,430.8,242.4,435.6,246.9,441z"/>
<path id="XMLID_382_" class="st44" d="M259.2,398.6c-0.4,0.5-0.8,0.9-1.2,1.4c-1.3-4.3,0.3-8.9-0.9-13.2
	c-0.4-10.7,0.3-21.4-0.5-32.1c-0.2-2.3,0.2-4.6,1.4-6.7c0.4,0,0.9,0.1,1.3,0.1c-0.7,8,0.5,15.9,0.2,23.8c-0.3,7.1-0.2,14.1-0.5,21.2
	C259,395,259.1,396.8,259.2,398.6z"/>
<path id="XMLID_381_" class="st45" d="M286,426.2c3.3,0.7,6.5,0.5,10,0.1c7.3-0.9,14.7-0.4,22,0.8c1,0.2,1.6,1,2.1,1.9
	c-0.5,0.4-1,0.7-1.6,0.8c-8.8-0.5-17.6-0.1-26.4-0.3C290,428.5,286.1,430.9,286,426.2z"/>
<path id="XMLID_380_" class="st46" d="M319,429c0.4,0,0.7,0,1.1,0c5.9,5.8,11.9,11.5,17.7,17.4c2.3,2.4-0.6,2.6-1.9,3.5
	c-0.3-0.3-0.6-0.6-0.9-0.9c-1.7-2.9-4.3-4.9-6.5-7.3c-0.9-1-1.6-2.1-2.6-2.9C323,435.9,319.2,433.7,319,429z"/>
<path id="XMLID_379_" class="st47" d="M263,343.1c1.4-4.5,6.1-5.9,8.7-9.3c1.3-1.7,2.8-3.2,4.3-4.8c2.1-2.2,4.1-4.5,6.3-6.7
	c0.8-0.8,1.7-1.7,2.7-0.3c-6.6,6.7-13.2,13.5-19.8,20.2C264.7,342.7,263.8,342.8,263,343.1z"/>
<path id="XMLID_378_" class="st35" d="M384.8,312.3c2-2.4,4.9-1.4,7.3-1.8c1.9-0.3,1.9,2.3,1.7,3.9c-0.2,1.9-0.7,3.9-1,5.8
	C390.2,317.6,387.5,315,384.8,312.3z"/>
<path id="XMLID_377_" class="st48" d="M236.9,410.2c-1.6-0.7-2-1.9-2-3.6c0.1-15.5,0.1-31.1,0.2-46.6c0.5-0.3,1-0.2,1.3,0.4
	c0.2,0.5,0.3,1,0.5,1.5c0.6,2.1,0.3,4.2,0.5,6.4c0,1.1,0.1,2.2,0,3.4c0,3.2,0,6.5,0,9.7c-0.3,7.1,0.6,14.2-0.8,21.3
	c-0.3,1.7-0.6,3.6,0.4,5.3l0,0C237.6,408.7,237.6,409.5,236.9,410.2z"/>
<path id="XMLID_376_" class="st49" d="M236,360c-0.3,0-0.6,0-0.8,0c-0.1-6.4-0.2-12.8-0.1-19.2c0-4.6,4.4-6,6.9-8.8
	c0.5,3.1-3.2,3.6-3.9,6c-1.5,1-0.9,2.6-1,4C239.2,348.1,238.9,354.1,236,360z"/>
<path id="XMLID_375_" class="st50" d="M260.8,434.1c-6.7-6.7-13.3-13.3-20-20c0.3-0.4,0.7-0.6,1.2-0.6c2.1,0.2,3.2,1.9,4.7,3.1
	c5,3.9,9.6,8.2,13.4,13.4c0.9,1.3,2.6,2.3,2,4.3C261.6,434.4,261.2,434.4,260.8,434.1z"/>
<path id="XMLID_374_" class="st51" d="M388,362c0.3,0,0.6,0,0.8,0c0.1,14,0.1,28.1,0.2,42.1c0,0.8,0.1,1.7-1,1.9c0-4.6,0-9.3,0-13.9
	c-2.5-7.7-2.5-15.3,0-23C388,366.7,388,364.3,388,362z"/>
<path id="XMLID_373_" class="st52" d="M353,304c0.3,0,0.7,0,1,0c2.4,0.7,3.5,3.2,5.8,4c2.4,2.7,4.8,5.4,7.2,8.1
	c0.1,0.8,0.4,2,0.1,2.3c-0.8,0.7-1.4-0.3-1.8-1c-0.6-1-1.1-2-2.3-2.5c-3.5-0.6-5.3-3.4-7.6-5.5c-1.2-1.3-2.7-2.4-3.3-4.1
	C351.7,304.6,351.7,303.8,353,304z"/>
<path id="XMLID_372_" class="st53" d="M277,296.9c4.3,0,8.7,0.1,13,0.1c-0.1,0.1-0.2,0.4-0.3,0.4c-6.3,0.2-11.4,4.7-17.8,4.6
	C273.6,300.3,275.3,298.6,277,296.9z"/>
<path id="XMLID_371_" class="st54" d="M366,348c0-0.3,0.1-0.6,0.1-1c1.2-0.1,1.6,0.7,2,1.6c0.7,11.3,0.3,22.7,0.2,34
	c-0.1,0.6-0.3,1.2-0.6,1.8c-0.4,0.6-0.9,0.8-1.5,0.6C366.1,372.7,366,360.4,366,348z"/>
<path id="XMLID_370_" class="st55" d="M260.8,434.1c0.4,0,0.8-0.1,1.2-0.1c0.9-0.4,1.7-0.1,2.3,0.4c3.9,3.8,8.4,7,12.2,11
	c1,1,2.3,2.1,1.5,3.8c-0.7,0.3-1.4,0.3-2.1-0.2C270.9,444.1,265.8,439.1,260.8,434.1z"/>
<path id="XMLID_369_" class="st56" d="M286,426.2c1.2,3.3,4,1.2,6,1.8c-1.9,3.6-4.6,1-7,1c-2.7-2.9-5.4-5.7-8.1-8.6
	c-1.1-1.1-2.3-2.2-0.2-3.4C279.3,420.6,282.9,423.2,286,426.2z"/>
<path id="XMLID_368_" class="st3" d="M364,256c-12.5,0-24.9-0.1-37.4-0.1C339.1,255,351.5,254.6,364,256z"/>
<path id="XMLID_367_" class="st57" d="M271,411.2c-0.1,1.8-0.2,3.7-2.6,1.6c-2.2-1.9-4.3-3.9-6.4-5.8c-2-2.5,0.5-2.4,1.8-3
	C266.2,406.4,267,410.4,271,411.2z"/>
<path id="XMLID_366_" class="st58" d="M402.9,408.9c-1.1,2.8-0.3,6.6-4.7,7.5c-1.9,0.4-0.1,2.8-1.5,3.8c-2-1.1-1.9-2.3-0.4-3.9
	C398.6,413.8,400.7,411.3,402.9,408.9z"/>
<path id="XMLID_365_" class="st3" d="M353,280c0,0.4,0,0.8-0.1,1.2c-4-0.1-8-0.2-11.9-0.3c2.9-5.4,6.6-1.2,10-0.9
	C351.7,280,352.3,280,353,280z"/>
<path id="XMLID_364_" class="st59" d="M234,317c0.4,0.1,0.8,0.2,1.3,0.2c-3.8,4.1-7.5,8.4-12.3,11.6C225.4,323.8,230,320.6,234,317z
	"/>
<path id="XMLID_363_" class="st60" d="M366.2,385c0.3,0,0.6,0,0.8,0c2.8,1,4.3,3.2,5.4,5.8c0.1,0.5,0,0.9-0.4,1.2
	c-0.4,0.3-0.7,0.7-1.1,1C368.5,390.9,365,389.3,366.2,385z"/>
<path id="XMLID_362_" class="st61" d="M314,449.8c-7.3,0-14.7,0-22,0c-0.2-0.7,0-1.2,0.6-1.5c6.9-1.1,13.9-1.1,20.8,0
	C314,448.7,314.2,449.2,314,449.8z"/>
<path id="XMLID_361_" class="st62" d="M314,449.8c0-0.3,0-0.6,0-0.8c0.6-0.7,1.4-1.1,2.3-1.2c3-0.5,6,0,8.9-0.3
	c3.6,0.3,7.4-0.9,10.7,1.5c0,0.3,0,0.6,0,0.8C328.7,449.8,321.3,449.8,314,449.8z"/>
<path id="XMLID_360_" class="st63" d="M352.7,334.1c5.4,2.1,9.1,5.9,11.2,11.2C360.1,341.6,356.4,337.9,352.7,334.1z"/>
<path id="XMLID_359_" class="st64" d="M342,321c1.6,3.6,6.5,4.8,6.9,9.3c-4-3.4-7.6-7.2-11-11.2C339.7,318.8,340.6,320.4,342,321z"
	/>
<path id="XMLID_358_" class="st65" d="M292,449c0,0.3,0,0.5,0,0.8c-5.4-0.2-10.8,1.2-16.1-0.8c0.7,0,1.4,0,2.1-0.1
	c0.4-0.5,0.9-0.8,1.5-1C283.7,447.8,288,446.6,292,449z"/>
<path id="XMLID_357_" class="st66" d="M359.8,308c-3.5,1-4-2.4-5.8-4c0.3-0.2,0.6-0.5,1-0.7C357,304.4,358.7,305.9,359.8,308z"/>
<path id="XMLID_356_" class="st67" d="M242,414c-0.4,0-0.8,0-1.2,0.1c-1.3-1.3-2.6-2.6-3.9-3.9c0-0.7,0-1.4,0.1-2.2
	c0.3,0.3,0.7,0.7,1,1C239.8,410.3,242.5,410.9,242,414z"/>
<path id="XMLID_355_" class="st68" d="M265.1,287.4c0-2.9,1.5-4.3,4.3-4.3C268,284.6,266.6,286,265.1,287.4z"/>
<path id="XMLID_354_" class="st0" d="M428.9,326c-2.2-1.3-2.3-2.6,0-4C428.9,323.3,428.9,324.7,428.9,326z"/>
<path id="XMLID_353_" class="st69" d="M377,399c2.1,0.2,3.4,1.4,3.9,3.5C379.6,401.3,378.3,400.2,377,399z"/>
<path id="XMLID_352_" class="st21" d="M196,389c1.5,1.3,3,2.6,4.4,4c1.2,1.2,2.3,1.8,4.3,1.4c4.1-0.8,5.6,1.4,4.4,5.5
	c-1.1,4.1-3.3,7.1-7.8,7c-3.2,0-3,3.1-5.4,5.1c0-7.6,0-14.3,0-21C196,390.3,196,389.7,196,389z"/>
<path id="XMLID_351_" class="st20" d="M328,257c-2.7,6-8.7,4.8-13.5,5.9c-5,1.1-8.7-1-10.5-5.9C312,257,320,257,328,257z"/>
<path id="XMLID_350_" class="st20" d="M263,489c2.2-5.5-2.6-10.9-10-11c1.4-3.3,5.8-3.5,7.1-7.2c0.5-1.6,2.7-0.5,4,0.3
	c2.3,1.5,4.4,3.4,7.2,4.2c2,0.6,1.4,2,0.5,3.5c-2,3.2-4.4,6.2-4.8,10.1C265.7,489,264.3,489,263,489z"/>
<path id="XMLID_349_" class="st70" d="M349,324c-2.3-1-4.3-2.9-7-3c-0.5-2.4-1-4.6-0.6-7.2c1-6.3-4.1-11.1-10.2-9.6
	c-3.1,0.8-6.2,0-9.2,0.8c-5.3,0.9-10.4,2.4-15.7,3.1c-1.1,0.2-2.2,1.1-3.3,0.7c-4.1-1.3-6.9,0.9-9.8,3.2c-0.9,0.7-1.8,1.5-3.1,0.9
	c-1.3,0-2.2-0.6-2.9-1.7c-1.2-1.8-2.1-1.2-3.4,0.2c-3.8,3.9-5.8,3.4-7.9-1.3c-1-2.1-1-3.1,1.9-2.5c1.9,0.4,4.7,1.6,3.7-2.7
	c-0.5-2.3,1.7-2.1,3.1-1.9c1.6,0.2,3.4-0.3,4.6-0.2c4.1,0.4,6.1-3.3,9.8-3.9c3.1-0.4,6-1,9.1-0.6c1.6,0.2,3.4,0.8,4.1-1.5
	c1,0,2,0,3,0c7.9,1.1,15.8,0.8,23.7,0.8c3.1,0,6.4-0.3,8.7,2.7c0.5,0.7,1.6,1.3,1.5,1.9c-0.8,4.4,2.7,8.2,1.8,12.5
	c-0.4,1.8,0.2,3.2,0.7,4.8C352,322,352,323.9,349,324z"/>
<path id="XMLID_348_" class="st71" d="M290,313c0.9-0.7,1.7-1.5,2.7-2.1c3-1.9,5.3-3.8,9.8-3.5c4.1,0.2,9.3-0.6,13.6-2.4
	c2-0.8,4-1.8,5.9,0c-4.6,2.5-1.8,7.6-4,11c-6.4,1.1-12.8,0.2-19.2,0.5c-1.9,0.1-4-0.5-5.8,0.5c-0.7,0-1.3,0-2,0
	C292.3,315.3,290.5,314.3,290,313z"/>
<path id="XMLID_347_" class="st72" d="M256,366c-0.6-2.5,1.5-7-1.8-7.3c-4-0.4-1,4.6-2.9,6.7c-3.3-2.6-5.6-6.8-10.3-7.4
	c-0.9-2.8-2.1-5.7,1-8c2.7,0.5,4.8,2.9,7.9,2.5c2.9-0.3,5.5-0.8,7.1-3.5c1,5.5,0.3,11,0.4,16.5C257.1,366.2,256.7,366.3,256,366z"/>
<path id="XMLID_346_" class="st73" d="M263,317c0.7-1,1.3-2,2-3c1.6,0.2,1.8-3.8,4.1-1.3c2.2,2.4,7.3,3.1,4.5,8.2
	c-0.6,1.1-1,2.5-1.6,3.6c-1.4,2.3-3.3,3.7-6.2,2.8c-2.9-0.9-2.6-3.3-2.8-5.7C262.8,320.1,264.8,318.5,263,317z"/>
<path id="XMLID_345_" class="st74" d="M242,350c-1.9,2.5,0.6,5.5-1,8c-2.1-0.1-4.3-0.2-4,3c-0.2,0.1-0.3,0.3-0.5,0.4
	c-0.2-0.1-0.3-0.3-0.5-0.4c0-0.3,0-0.7,0-1c1-6,1-12,1-18C240.4,343.6,240.8,347,242,350z"/>
<path id="XMLID_344_" class="st75" d="M257,366c0-5.7,0-11.3,0-17c0.3-0.4-0.5-1.8,1-1c0,13,0,26,0,39c-0.7,0.3-1.2,0.1-1.4-0.6
	C256.7,379.6,256,372.8,257,366z"/>
<path id="XMLID_343_" class="st76" d="M279,449c-0.3,0-0.7,0-1,0c-4.4-6-10.8-9.8-16-15c-4.7-6.3-10.1-11.9-16-17
	c1.3-1.4,2.7-2.1,4,0c0.4,1,1,1.6,2,2c3.8,2.8,6.4,7.1,11.3,8.4c0.5,0.4,1,1,1.4,1.5c2.6,4.4,7.5,6.6,10,11.1c0.7,1.2,2,0.8,3.2,0.3
	c1.5-0.7,3-1.4,4.8-1c2.1,0.9,4.2,1.8,5.8,3.4c1.5,1.5,3.5,3.2,1.2,5.7C286.1,448.8,282.5,447.9,279,449z"/>
<path id="XMLID_342_" class="st77" d="M264,429c-0.3-0.3-0.7-0.7-1-1c-0.5-0.6-0.8-1.3-1-2c-0.8-1.9-1.6-3.8-1-6
	c3.3-3.6,3.2-3.3,5.7,0.5c1.7,2.5,3.9,4.1,3,7.6c-0.2,0.8,0.8,1.6,2,1.9c7.1,1.4,13.5,4.9,20.3,7c1.3,0.8,2.1,1.9,2.4,3.4
	c-1.1,2.9-3.2,3-5.5,1.7c-2.6-1.4-5.2-2.6-8.1-3.1C273.4,438.6,268.8,433.5,264,429z"/>
<path id="XMLID_341_" class="st78" d="M236,381c0-3.3,0-6.7,0-10c2.7,0.5,1.9,2.5,2,3.8c1.5-2.9,0.9-6.8,3-9.8
	c2-1.8,3.2-0.7,3.9,1.3c0.4,1.2,0.7,2.5,1.1,3.7c-4.8,4.7-4.9,5.8-1,9c-2.9,6.1-3.6,12.9-5.2,19.3c-0.5,1.9-1.2,2.5-2.8,2.7
	c-1.1-4.9-0.2-9.8-0.5-14.7C236.4,384.5,237,382.7,236,381z"/>
<path id="XMLID_340_" class="st79" d="M250,417c-1.3-1-2.7,0-4,0c-1.3-1-2.7-2-4-3c-1.3-1.7-2.7-3.3-4-5c2.3,0,1.3-2.6,2.7-3.6
	c1-0.7,1.2-2.6,2.9-2c1.3,0.5,2.3,1.5,2.3,3c0,3,1.1,4.5,4.2,5.5C252.9,412.9,251.8,415.3,250,417z"/>
<path id="XMLID_339_" class="st80" d="M241,365c0.7,5.1-2.3,9.5-2.4,15.2c-3-3.1-0.2-6.8-2.6-9.2c0-1,0-2,0-3c1.3-2.2-0.3-4.8,1-7
	c0,0,0,0,0,0C238.3,362.3,239.7,363.7,241,365z"/>
<path id="XMLID_338_" class="st81" d="M249,397c-0.3-0.6-0.6-1.2-0.9-1.8c-0.8-2-3.2-4.7,0.4-5.5c2.2-0.5,5.7,0.8,6.6,3.8
	c0.9,3.2-1.1,4.5-4.1,4.5C249.8,398.7,249,398.7,249,397z"/>
<path id="XMLID_337_" class="st77" d="M249,397c0.4,0.8,1.2,1,2,1c-1,2.7-2.3,5.1-5.8,4.1c-1.6-0.5-4.4-0.1-3.5-3.3
	c0.7-2.6,2.2-3.9,5-2.4C247.4,396.7,248.2,396.8,249,397z"/>
<path id="XMLID_336_" class="st82" d="M245,379c-1.4,0.7-3.1,1.4-3.6-0.7c-0.6-2.3-1.3-5,1-6.9c1-0.8,2.4-1,3.6-1.5
	C248,373.3,243.9,375.8,245,379z"/>
<path id="XMLID_335_" class="st67" d="M236,381c2.3,6.6,0.4,13.3,1,20c0,2.3,0,4.7,0,7c-2-3-0.8-6.4-0.9-9.6
	C235.8,392.6,236,386.8,236,381z"/>
<path id="XMLID_334_" class="st83" d="M257,366c0,7,0,14,0,21c0.3,0.2,0.4,0.4,0.3,0.7c-0.1,0.2-0.2,0.3-0.3,0.3
	c-1-0.7-1.6-1.7-1.4-2.9c0.9-6.3,0.2-12.7,0.4-19.1C256.3,366,256.7,366,257,366z"/>
<path id="XMLID_333_" class="st84" d="M262,426c0.8,0.4,1,1.2,1,2c-4.9-1.4-8.2-4.9-11-9C256.2,420.1,258.1,424.5,262,426z"/>
<path id="XMLID_332_" class="st85" d="M257,388c0-0.3,0-0.7,0-1c0.3,0,0.7,0,1,0c0,4.3,0,8.7,0,13C255.9,396.1,257.5,392,257,388z"
	/>
<path id="XMLID_331_" class="st35" d="M404,379c0-2,0-4.1,0-6.1c1.1-2.2,0.1-4.5,0.6-6.8c3.9-3.7,4.9-8.9,6.8-13.6
	c0.7-1.6,1.1-3.8,0.4-5.4c-2-4.4-3.8-8.6-1.6-13.7c0.9-2.2-2.8-2.5-3.2-4.5c3.8-1.5,7.2-1.6,9.5,2.7c1,1.9,2.4,3.6,3.6,5.4
	c0.8,1.3,1.5,3,0.3,4.2c-5.8,5.5-3.4,14.1-8,20.1c-2.5,3.2-0.4,6.3,2.5,8.9c4.6,4.2,4.4,5.9-0.4,9.8c-5.2,4.3-5.7,10.5-1.1,15.5
	c2.2,2.3,3.5,4.8,2.4,8.1c-1.1,3.4-4.2,2.1-6.4,2.5c-1.9,0.3-3.9-0.3-5.2,1.8c0-4.7,0-9.3,0-14C405.6,389,404.9,384,404,379z"/>
<path id="XMLID_330_" class="st86" d="M407,329c5.9,2.2,5.9,2.2,3.5,8.2c-0.7,1.6-1,3.4,0.2,4.7c4.3,5.2,3.2,10.3,0.1,15.4
	c-1.8,3-0.2,8.2-5.8,8.6c-1.2-3.9-0.4-7.4,1.4-10.9c2.1-4.1,2.4-8.2-0.8-12c-1.7-2-1.3-4.4-0.5-6.6c0.7-2.1,0.8-3.9-1-5.4
	c0-0.3,0-0.7-0.1-1C404.7,328.8,405.9,329,407,329z"/>
<path id="XMLID_329_" class="st13" d="M425,418c-2.1,0.2-3.2-0.8-4.4-2.5c-3.3-4.9-7.6-5.3-12.4-1.2c-1.5,1.3-2.8,2.9-4.3,4
	c-1.3,1-2.7,1.1-3.9-0.3c3.1-0.8,5.5-2.4,5.9-5.8c0.2-1.6,1.1-2.3,2.4-2.7C415.4,407.2,423.5,408.3,425,418z"/>
<path id="XMLID_328_" class="st38" d="M415,458c-0.6-0.3-1.3-0.8-1.8-0.7c-7.2,0.8-7.9,0.4-9.1-6.9c-0.3-1.8-1.4-3-2.1-4.4
	c6.5,0.9,9.5,6.4,13.6,10.4C416.1,456.9,415.6,457.6,415,458z"/>
<path id="XMLID_327_" class="st32" d="M388,369c0,7.7,0,15.3,0,23c-1,0.5-2.3,0.9-2.9,1.7c-3.3,4.3-6.6,3.8-10.1,0.3
	c2.2-5.1,0.4-10.4,1-15.6c0.2-4.1,0.4-8.2-0.6-12.1c-1.2-4.6-0.4-7.7,4.2-9.4c0.5-0.2,0.9-0.2,1.4,0.2c1.5,0.8,2.7,2,1.6,3.6
	c-2.5,3.5-0.5,4.9,2.5,5.4C387.1,366.3,386.7,368.3,388,369z"/>
<path id="XMLID_326_" class="st87" d="M356,309c2.3,2,4.7,4,7,6c-6.1,3.2,0.3,6.8,0,10.2c-0.1,1.3,1.6,2.8-0.5,4.1
	c-1.5,0.9-1,1.9,0.3,2.6c1,0.6,2.5,1.2,1.5,2.5c-0.5,0.7-2.1,0.4-3.3,0.6c-1.4-0.9-2.5-2.1-3.6-3.2c-4-4.3-6-8.9-2.4-14.5
	c0.8-1.2,0.6-2.5,0.2-3.8C354.6,311.8,354.3,310.2,356,309z"/>
<path id="XMLID_325_" class="st88" d="M381,357c-0.3,0-0.7,0-1,0c-0.7,0.3-1.5,0.3-1.8-0.2c-2.3-4.3-6.7-7.5-7.2-12.8
	c-0.9-3.5-4.6-4.9-6-8c4.3-0.2,6,4.7,10,5c1.8,0.9,4.3,1,4,4C381.2,348.7,381.6,352.8,381,357z"/>
<path id="XMLID_324_" class="st89" d="M372,322c4.5,4.8,10.1,8.6,14,14c-0.2,0.4-0.4,0.8-0.6,1.2c-4.1-4.9-9-8.9-13.7-13.1
	C371,323.4,371.2,322.6,372,322z"/>
<path id="XMLID_323_" class="st90" d="M379,345c-1.3-1.3-2.7-2.7-4-4c2.4-1.8,4.2-0.2,6.1,1c1.6,1,2.6,2.5,1.5,4
	C381.2,347.8,380.3,345.1,379,345z"/>
<path id="XMLID_322_" class="st89" d="M388,339c0,3.7,0,7.3,0,11C386.4,346.3,386.4,342.7,388,339z"/>
<path id="XMLID_321_" class="st91" d="M294,440c-1.3-0.6-2-1.6-2-3c0.7-1.3,3-1.4,2.7-3.2c-0.4-1.9-2.1-2.1-3.8-2.5
	c-2-0.5-3.9-1.5-5.9-2.3c2.3-0.4,4.9,0.9,7-1c7.1,0,14.2,0,21.3,0c2,0,4-0.1,5.7,1c2.2,3.5,4.5,6.7,8,9c0.9,1.2,0.4,2.2-0.3,3.2
	c-0.3,0.4-0.7,0.7-1,0.9c-2.8,1.4-5.5,1.3-8-0.5c-2.8-2.1-5.5-1.7-8.3-0.3c-2-1.4-4.3-1.1-6.5-1.2C299.9,439.1,296.9,440.3,294,440z
	"/>
<path id="XMLID_320_" class="st92" d="M293,317c3.7-2.1,7.7-0.7,11.6-0.9c4.5-0.2,8.9-0.1,13.4-0.1c4,0.5,8.1-1.1,12,1
	C317.7,317,305.3,317,293,317z"/>
<path id="XMLID_319_" class="st66" d="M356,309c1,5.3-0.2,10.1-2,15.1c-0.8,2.3,3.5,4.7,4,7.9c0.3,0.2,0.4,0.4,0.3,0.7
	c-0.1,0.2-0.2,0.3-0.3,0.3c-3.3-2.7-6.8-5.2-9-9c0.5-0.4,1.5-1.1,1.5-1.2c-2.4-4,0.1-8.8-2-12.7c-0.7-1.3-1.7-2.4-1.4-4.1
	c0.7-4-1.2-6.6-5.4-7.1c-7.3-0.8-14.7,0.4-22-1c-1.6-0.3-3.4,0.5-4.7-1c8,0,16,0.5,23.9-0.2c6.5-0.5,10.8,2,14.1,7.1
	C352.4,306.6,355.6,307,356,309z"/>
<path id="XMLID_318_" class="st18" d="M371,344c1.8,3.7,6.2,5.9,6.6,10.7c0.1,0.8,1.6,1.5,2.4,2.3c-5.3,3.2-2.8,8-3,12.5
	c-0.1,2.8,2.1,5.7,0,8.5c-3-1-1.3-4.5-3.5-6.4c-1.7,2.3-2,4.8-2.4,7.4c-0.3,2.2,0.4,4.7-1.7,6.4c-1.3,0.1-1.9-0.6-1.9-1.8
	c0-7.1,0-14.3,0-21.4c2.4-3.6,4.6-7.2,0.3-10.9c-0.6-1,0.1-2.3-0.8-3.3c-0.3-0.3-0.6-0.6-0.9-0.9C367,344.9,368.6,343.8,371,344z"/>
<path id="XMLID_317_" class="st18" d="M358,333c0-0.3,0-0.7,0-1c1.3,0.7,2.3,1.7,3,3C359.6,335,358.6,334.3,358,333z"/>
<path id="XMLID_316_" class="st93" d="M370,385c-0.9-4.8,0-9.3,1.9-13.7c0.5-1.1,1.1-2.2,2.5-1.8c1.3,0.4,1.6,1.6,1.5,2.8
	c0,2-0.1,4,1,5.7c-1,4.8,2.9,9.8-0.8,14.5c-0.4,0.5-0.8,1-1.2,1.5c-1-0.7-2-1.3-3-2c0-0.3,0-0.7,0-1
	C371.9,388.8,370.2,387.2,370,385z"/>
<path id="XMLID_315_" class="st94" d="M404.1,331c3.6,0.1,4.1,2.2,2.4,4.7c-2.1,3.1-1.4,4.9,1,7.6c3.4,3.8,2.4,8.7-0.2,12.7
	c-2,3.1-2.6,6.3-2.3,9.9c-0.4,2.3,0.9,4.8-0.9,7C404.1,359,404.1,345,404.1,331z"/>
<path id="XMLID_314_" class="st95" d="M404,379c2,5,3.3,10,0,14.9C404,389,404,384,404,379z"/>
<path id="XMLID_313_" class="st96" d="M336,449c-3.7,0-7.3,0-11,0c-4.2-1.4-4.6-2.6-1.4-5.6c0.8-0.8,1.8-1.4,2.4-2.4h0
	c1-1,2-0.2,3,0C331.7,443.3,334.9,445.2,336,449z"/>
<path id="XMLID_312_" class="st97" d="M329,441c-1,1.2-2-0.3-3,0c0.3-1,0.7-2,1-3C327.7,439,328.3,440,329,441z"/>
<path id="XMLID_311_" class="st78" d="M237,361c-0.4,2.3,0.9,4.9-1,7c0-2.3,0-4.7,0-7C236.3,361,236.7,361,237,361z"/>
<path id="XMLID_310_" class="st98" d="M367,348c1.2,0.7,1,1.9,1,3c2.1,3.3,2.1,6.7,0,10c0,7.7,0,15.3,0,23c-0.3,0.5-0.7,0.5-1,0
	C367,372,367,360,367,348z"/>
<path id="XMLID_309_" class="st32" d="M367,384c0.3,0,0.7,0,1,0c0.4,0.8,1.2,1,2,1c2.4,1.4,2.8,3.5,2,6c-1.7-2-3.3-4-5-6
	C367,384.7,367,384.3,367,384z"/>
<path id="XMLID_308_" class="st99" d="M279,449c3.5-2.1,7.3-0.5,11-1c2.1-1.9,4.8-1.2,7.2-1.5c4.6-0.1,9.1-0.2,13.7,0.1
	c1.9,0.1,4.4-0.5,5.1,2.4c-0.7,0-1.3,0-2,0c-7.3,0-14.7,0-22,0C287.7,449,283.3,449,279,449z"/>
<path id="XMLID_307_" class="st97" d="M316,449c-6.2-2.2-12.7-0.4-19-1c-1.9-0.9-4.4-1.3-2.5-4.5c2.1-3.7,4.6-4.5,8.6-2.6
	c2,1.4,4,1,6,0.1c2.9-2.7,5.9-3.3,9.1-0.4c2.5,2.3,5.2,1.6,7.9,0.4c0,1.5-0.8,2.5-1.8,3.3c-3,2.2-1.3,3.5,0.8,4.7
	C322,449,319,449,316,449z"/>
<path id="XMLID_306_" class="st100" d="M303,442c-2.9-2.7-4.7-1.3-7,1.3c-2.4,2.7-0.4,3.4,1,4.7c-2.3,0-4.7,0-7,0
	c-0.3-5-5.1-5.5-8-8c-0.5-0.6-1.6-0.9-1-2c2.9,1.5,6.6,0.7,9.1,3.6c1,1.2,3.1,0.1,3.9-1.6c2.4-3.2,6.2,0,8.8-1.9
	c0.1,0.6,0.1,1.3,0.2,1.9C303.6,440.7,303.6,441.3,303,442z"/>
<path id="XMLID_305_" class="st84" d="M281,438c0.3,0.7,0.7,1.3,1,2c-1.1,0.4-2.3,0.5-3.2,1.1c-2.9,1.9-5,1.4-6.1-1.8
	c-0.9-2.8-3.8-3.5-5.5-5.5c-1.2-1.5-3.2-2.5-3.3-4.8c3.3,2.1,6.7,4.1,9.8,6.4C276,437.1,278.2,438.3,281,438z"/>
<path id="XMLID_304_" class="st101" d="M303,442c0-0.7,0-1.3,0-2c2.3-1.5,4.6-2.8,6,1C307.5,444.3,305.4,444.1,303,442z"/>
<path id="XMLID_303_" class="st102" d="M368,361c0-3.3,0-6.7,0-10c3.9,0.6,3.5,3.9,3.9,6.5C372.3,360.2,370,360.6,368,361z"/>
</svg>
